<svg xmlns="http://www.w3.org/2000/svg" xmlns:xlink="http://www.w3.org/1999/xlink" width="40" zoomAndPan="magnify" viewBox="0 0 30 30.000001" height="40" preserveAspectRatio="xMidYMid meet" version="1.0"><defs><clipPath id="4d7abde7e5"><path d="M 0.484375 7.640625 L 29.515625 7.640625 L 29.515625 21.429688 L 0.484375 21.429688 Z M 0.484375 7.640625 " clip-rule="nonzero"/></clipPath></defs><g clip-path="url(#4d7abde7e5)"><path fill="#ffffff" d="M 23.382812 20.976562 L 29.117188 15.242188 C 29.515625 14.84375 29.515625 14.191406 29.117188 13.792969 L 23.382812 8.046875 C 22.984375 7.648438 22.332031 7.648438 21.933594 8.046875 C 21.535156 8.445312 21.535156 9.097656 21.933594 9.496094 L 25.925781 13.484375 L 1.511719 13.484375 C 0.945312 13.484375 0.484375 13.945312 0.484375 14.511719 C 0.484375 15.074219 0.945312 15.539062 1.511719 15.539062 L 25.910156 15.539062 L 21.921875 19.527344 C 21.714844 19.734375 21.625 19.988281 21.625 20.257812 C 21.625 20.527344 21.730469 20.785156 21.921875 20.992188 C 22.332031 21.375 22.984375 21.375 23.382812 20.976562 Z M 23.382812 20.976562 " fill-opacity="1" fill-rule="nonzero"/></g></svg>