<svg xmlns="http://www.w3.org/2000/svg" xmlns:xlink="http://www.w3.org/1999/xlink" width="80" zoomAndPan="magnify" viewBox="0 0 60 60" height="80" preserveAspectRatio="xMidYMid meet" version="1.0"><defs><clipPath id="8c006d1433"><path d="M 0 0 L 6.601562 0 L 6.601562 12.675781 L 0 12.675781 Z M 0 0 " clip-rule="nonzero"/></clipPath><clipPath id="3eb8bfde35"><path d="M -0.148438 6.898438 C 3.300781 1.949219 4.199219 1.949219 4.5 2.324219 C 4.875 2.773438 4.5 3.976562 4.273438 4.949219 C 3.976562 6.226562 3.074219 8.476562 2.398438 9.074219 C 2.101562 9.375 1.648438 9.449219 1.351562 9.375 C 1.050781 9.300781 0.824219 9 0.675781 8.550781 C 0.300781 7.199219 1.199219 0.898438 1.949219 -0.523438 C 2.25 -1.050781 2.625 -1.425781 2.925781 -1.425781 C 3.226562 -1.425781 3.675781 -1.199219 3.824219 -0.824219 C 4.125 -0.226562 3.824219 0.976562 3.675781 2.023438 C 3.449219 3.523438 3.148438 6.601562 2.476562 7.273438 C 2.175781 7.574219 1.5 7.648438 1.273438 7.5 C 1.050781 7.351562 0.898438 6.976562 0.898438 6.523438 C 0.898438 5.476562 2.324219 2.101562 3.148438 1.273438 C 3.523438 0.824219 4.050781 0.601562 4.425781 0.675781 C 4.800781 0.75 5.25 1.125 5.324219 1.648438 C 5.550781 2.773438 3.824219 7.273438 2.925781 7.5 C 2.476562 7.648438 1.726562 7.050781 1.5 6.523438 C 1.199219 5.773438 1.875 4.351562 2.324219 3.148438 C 2.851562 1.726562 3.75 -0.824219 4.574219 -1.425781 C 5.023438 -1.726562 5.625 -1.726562 5.925781 -1.574219 C 6.148438 -1.425781 6.375 -1.125 6.375 -0.75 C 6.449219 -0.0742188 5.699219 1.199219 5.175781 2.324219 C 4.5 3.75 3.148438 6.976562 2.324219 7.125 C 1.875 7.199219 1.273438 6.675781 1.050781 6.148438 C 0.675781 5.101562 1.800781 1.425781 2.476562 0.601562 C 2.773438 0.226562 3.226562 0.0742188 3.523438 0.0742188 C 3.824219 0.0742188 4.125 0.300781 4.273438 0.675781 C 4.5 1.351562 4.199219 2.925781 3.75 4.273438 C 3 6.449219 0.523438 11.324219 -0.523438 12.148438 C -0.898438 12.449219 -1.273438 12.449219 -1.5 12.375 C -1.726562 12.300781 -2.023438 11.925781 -2.023438 11.550781 C -2.023438 10.574219 0.226562 8.25 0.75 6.675781 C 1.199219 5.324219 0.75 3.300781 1.351562 2.773438 C 1.726562 2.398438 2.699219 2.398438 3 2.625 C 3.226562 2.773438 3.300781 3 3.226562 3.375 C 3 4.5 -0.148438 8.851562 -1.351562 9.601562 C -1.800781 9.898438 -2.324219 10.050781 -2.625 9.898438 C -2.925781 9.75 -3.148438 9.449219 -3.148438 8.925781 C -3.148438 7.273438 1.875 -0.675781 3.226562 -1.875 C 3.675781 -2.25 3.976562 -2.398438 4.273438 -2.324219 C 4.5 -2.25 4.800781 -2.023438 4.875 -1.726562 C 5.023438 -1.273438 4.648438 -0.601562 4.351562 0.148438 C 3.75 1.574219 1.875 5.175781 0.898438 5.699219 C 0.523438 5.925781 0 5.851562 -0.226562 5.699219 C -0.449219 5.550781 -0.601562 4.949219 -0.449219 4.726562 C -0.300781 4.425781 0.449219 4.125 0.675781 4.199219 C 0.976562 4.273438 1.273438 5.175781 1.125 5.398438 C 0.976562 5.625 0.226562 5.925781 -0.0742188 5.773438 C -0.300781 5.625 -0.523438 5.25 -0.523438 4.800781 C -0.449219 3.523438 2.25 -0.976562 3.226562 -1.875 C 3.601562 -2.25 3.976562 -2.398438 4.273438 -2.324219 C 4.574219 -2.25 4.875 -1.875 4.875 -1.351562 C 4.875 0.300781 0.148438 8.476562 -1.351562 9.601562 C -1.800781 9.976562 -2.324219 10.050781 -2.625 9.898438 C -2.925781 9.75 -3.148438 9.375 -3.148438 8.925781 C -3.074219 7.726562 0.226562 3.148438 1.5 2.550781 C 2.023438 2.25 2.699219 2.324219 3 2.625 C 3.449219 3.148438 3.226562 5.023438 2.851562 6.375 C 2.324219 8.175781 0.375 11.476562 -0.523438 12.148438 C -0.898438 12.375 -1.273438 12.449219 -1.5 12.375 C -1.726562 12.300781 -1.949219 12 -2.023438 11.550781 C -2.175781 9.976562 1.273438 1.875 2.476562 0.601562 C 2.851562 0.226562 3.226562 0 3.523438 0.0742188 C 3.898438 0.148438 4.351562 0.601562 4.425781 1.125 C 4.648438 2.25 3.148438 6.601562 2.324219 7.125 C 2.023438 7.351562 1.574219 7.199219 1.351562 7.050781 C 1.125 6.824219 1.050781 6.449219 1.125 5.925781 C 1.273438 4.574219 3.375 -0.226562 4.425781 -1.199219 C 4.875 -1.648438 5.398438 -1.875 5.699219 -1.726562 C 6 -1.574219 6.300781 -1.050781 6.300781 -0.449219 C 6.300781 1.050781 3.976562 7.273438 2.925781 7.5 C 2.398438 7.648438 1.648438 6.898438 1.5 6.300781 C 1.199219 5.25 2.476562 2.023438 3.226562 1.199219 C 3.601562 0.824219 4.050781 0.601562 4.425781 0.675781 C 4.800781 0.75 5.25 1.125 5.324219 1.648438 C 5.476562 2.699219 3.375 6.601562 2.476562 7.273438 C 2.101562 7.574219 1.574219 7.726562 1.273438 7.5 C 0.601562 6.898438 1.351562 0.75 1.949219 -0.523438 C 2.175781 -1.050781 2.625 -1.425781 2.925781 -1.425781 C 3.226562 -1.425781 3.675781 -1.273438 3.824219 -0.824219 C 4.425781 0.449219 3.300781 8.023438 2.398438 9.074219 C 2.101562 9.449219 1.648438 9.449219 1.351562 9.375 C 1.050781 9.226562 0.75 8.851562 0.675781 8.324219 C 0.523438 7.125 1.726562 2.925781 2.699219 2.25 C 3.226562 1.875 4.273438 1.949219 4.5 2.324219 C 4.875 3 2.476562 7.5 1.5 8.101562 C 1.050781 8.398438 0.375 8.25 0.0742188 8.023438 C -0.148438 7.800781 -0.148438 6.898438 -0.148438 6.898438 " clip-rule="nonzero"/></clipPath><clipPath id="be800b72ff"><path d="M 56.175781 0 L 60 0 L 60 9 L 56.175781 9 Z M 56.175781 0 " clip-rule="nonzero"/></clipPath><clipPath id="47ae142339"><path d="M 59.550781 1.273438 C 58.800781 6.300781 58.050781 6.449219 57.675781 6.300781 C 57.375 6.148438 57.074219 5.699219 57 5.175781 C 56.773438 4.125 57.226562 0.976562 57.75 0 C 58.050781 -0.523438 58.5 -0.976562 58.875 -0.976562 C 59.324219 -0.976562 60 -0.601562 60.300781 0 C 60.976562 1.199219 61.125 6.898438 60.449219 7.199219 C 60.074219 7.425781 58.875 6.375 58.574219 5.699219 C 58.199219 5.023438 58.800781 3.898438 58.574219 3 C 58.351562 1.949219 56.699219 0.601562 56.925781 -0.0742188 C 57.074219 -0.523438 58.125 -1.125 58.5 -0.976562 C 58.875 -0.824219 59.398438 0.675781 59.175781 0.976562 C 58.949219 1.273438 57.375 1.199219 57.074219 0.898438 C 56.851562 0.675781 56.925781 0 57.074219 -0.300781 C 57.300781 -0.601562 57.898438 -1.050781 58.351562 -0.976562 C 59.101562 -0.898438 60.449219 0.300781 60.898438 1.425781 C 61.574219 3 61.5 7.273438 60.75 8.25 C 60.375 8.773438 59.550781 8.925781 59.101562 8.773438 C 58.648438 8.625 58.351562 8.175781 58.125 7.5 C 57.601562 6.074219 57.226562 1.273438 57.75 0 C 57.976562 -0.601562 58.5 -0.976562 58.875 -0.976562 C 59.324219 -0.976562 60.074219 -0.601562 60.300781 0 C 60.75 1.125 59.851562 5.476562 58.949219 6.074219 C 58.5 6.375 57.523438 6.148438 57.148438 5.773438 C 56.699219 5.25 56.925781 3.601562 57.074219 2.625 C 57.226562 1.726562 57.449219 0.375 57.898438 0.0742188 C 58.273438 -0.148438 58.949219 0.0742188 59.25 0.300781 C 59.476562 0.523438 59.550781 1.273438 59.550781 1.273438 " clip-rule="nonzero"/></clipPath><clipPath id="0beb70979c"><path d="M 0 0 L 3.675781 0 L 3.675781 4.648438 L 0 4.648438 Z M 0 0 " clip-rule="nonzero"/></clipPath><clipPath id="f92f4b5f61"><path d="M 0.449219 3.074219 C -2.023438 1.425781 -2.476562 0.148438 -2.324219 -0.523438 C -2.175781 -1.050781 -1.5 -1.574219 -0.976562 -1.726562 C -0.375 -1.875 0.75 -1.726562 1.273438 -1.199219 C 1.949219 -0.449219 2.175781 2.398438 1.949219 3.300781 C 1.800781 3.75 1.5 4.050781 1.199219 4.199219 C 0.824219 4.351562 0.226562 4.351562 -0.0742188 4.125 C -0.375 3.898438 -0.601562 3.601562 -0.675781 3.074219 C -0.824219 2.023438 0 -1.273438 0.824219 -2.101562 C 1.273438 -2.625 2.25 -2.851562 2.625 -2.699219 C 3 -2.550781 3.226562 -1.949219 3.226562 -1.351562 C 3.148438 -0.148438 1.273438 3.824219 0.226562 4.199219 C -0.375 4.425781 -1.125 4.050781 -1.5 3.523438 C -2.101562 2.699219 -2.101562 -0.300781 -1.648438 -1.199219 C -1.351562 -1.726562 -0.75 -2.101562 -0.300781 -2.101562 C 0.0742188 -2.101562 0.601562 -1.726562 0.75 -1.425781 C 0.898438 -1.125 0.976562 -0.523438 0.824219 -0.226562 C 0.675781 0.0742188 0.226562 0.449219 -0.148438 0.523438 C -0.523438 0.601562 -1.125 0.449219 -1.351562 0.148438 C -1.574219 -0.148438 -1.648438 -1.050781 -1.5 -1.425781 C -1.351562 -1.800781 -0.824219 -2.101562 -0.449219 -2.101562 C 0 -2.101562 0.601562 -1.726562 0.898438 -1.199219 C 1.351562 -0.300781 1.273438 2.550781 0.824219 3.449219 C 0.601562 3.976562 0.0742188 4.351562 -0.300781 4.351562 C -0.75 4.351562 -1.5 3.601562 -1.574219 2.925781 C -1.726562 1.800781 0 -1.199219 0.824219 -2.101562 C 1.199219 -2.550781 1.648438 -2.851562 2.023438 -2.851562 C 2.398438 -2.851562 3.074219 -2.476562 3.226562 -1.949219 C 3.601562 -0.898438 2.398438 3.449219 1.425781 4.050781 C 0.898438 4.351562 -0.0742188 4.125 -0.449219 3.675781 C -0.898438 3.148438 -1.050781 0.898438 -0.601562 0.601562 C -0.148438 0.300781 1.949219 1.273438 2.175781 1.800781 C 2.324219 2.175781 1.875 2.851562 1.574219 3.074219 C 1.273438 3.226562 0.449219 3.074219 0.449219 3.074219 " clip-rule="nonzero"/></clipPath></defs><path fill="#384765" d="M 6.027344 58.597656 C 6.027344 59.027344 6.378906 59.375 6.808594 59.375 L 26.289062 59.375 C 26.722656 59.375 27.070312 59.027344 27.070312 58.597656 C 27.070312 58.164062 26.722656 57.816406 26.289062 57.816406 L 7.585938 57.816406 L 7.585938 49.816406 C 7.585938 40.492188 13.667969 32.84375 22.175781 30.503906 C 21.628906 30.152344 21.109375 29.769531 20.613281 29.347656 C 12.046875 32.214844 6.027344 40.183594 6.027344 49.816406 Z M 6.027344 58.597656 " fill-opacity="1" fill-rule="nonzero"/><path fill="#384765" d="M 39.789062 29.320312 C 39.308594 29.730469 38.804688 30.113281 38.273438 30.460938 C 46.835938 32.722656 52.785156 40.292969 52.785156 49.816406 L 52.785156 57.816406 L 34.082031 57.816406 C 33.652344 57.816406 33.304688 58.164062 33.304688 58.597656 C 33.304688 59.027344 33.652344 59.375 34.082031 59.375 L 53.566406 59.375 C 53.996094 59.375 54.34375 59.027344 54.34375 58.597656 L 54.34375 49.816406 C 54.34375 40.152344 48.335938 32.164062 39.789062 29.320312 Z M 39.789062 29.320312 " fill-opacity="1" fill-rule="nonzero"/><path fill="#384765" d="M -7.996094 5.605469 C -1.542969 5.605469 3.691406 0.371094 3.691406 -6.085938 C 3.691406 -12.542969 -1.542969 -17.773438 -7.996094 -17.773438 C -14.453125 -17.773438 -19.6875 -12.542969 -19.6875 -6.085938 C -19.6875 0.371094 -14.453125 5.605469 -7.996094 5.605469 Z M -7.996094 -16.214844 C -2.410156 -16.214844 2.132812 -11.671875 2.132812 -6.085938 C 2.132812 -0.5 -2.410156 4.046875 -7.996094 4.046875 C -13.585938 4.046875 -18.128906 -0.5 -18.128906 -6.085938 C -18.128906 -11.671875 -13.585938 -16.214844 -7.996094 -16.214844 Z M -7.996094 -16.214844 " fill-opacity="1" fill-rule="nonzero"/><path fill="#384765" d="M 68.371094 -17.773438 C 61.917969 -17.773438 56.683594 -12.542969 56.683594 -6.085938 C 56.683594 0.371094 61.917969 5.605469 68.371094 5.605469 C 74.828125 5.605469 80.0625 0.371094 80.0625 -6.085938 C 80.0625 -12.542969 74.828125 -17.773438 68.371094 -17.773438 Z M 76.164062 0.378906 L 76.164062 0.191406 C 76.164062 -2.4375 74.789062 -4.683594 72.703125 -5.898438 C 72.371094 -5.464844 71.980469 -5.085938 71.539062 -4.769531 C 73.386719 -3.898438 74.605469 -2.054688 74.605469 0.191406 L 74.605469 1.707031 C 74.605469 1.761719 74.628906 1.808594 74.636719 1.859375 C 72.910156 3.222656 70.738281 4.046875 68.371094 4.046875 C 66.007812 4.046875 63.832031 3.222656 62.109375 1.859375 C 62.117188 1.808594 62.136719 1.761719 62.136719 1.707031 L 62.136719 0.191406 C 62.136719 -2.054688 63.359375 -3.898438 65.207031 -4.769531 C 64.765625 -5.085938 64.375 -5.464844 64.042969 -5.898438 C 61.957031 -4.683594 60.578125 -2.4375 60.578125 0.191406 L 60.578125 0.378906 C 59.121094 -1.378906 58.242188 -3.628906 58.242188 -6.085938 C 58.242188 -11.671875 62.785156 -16.214844 68.371094 -16.214844 C 73.960938 -16.214844 78.503906 -11.671875 78.503906 -6.085938 C 78.503906 -3.628906 77.625 -1.378906 76.164062 0.378906 Z M 76.164062 0.378906 " fill-opacity="1" fill-rule="nonzero"/><path fill="#384765" d="M -7.996094 81.976562 C -1.542969 81.976562 3.691406 76.742188 3.691406 70.285156 C 3.691406 63.828125 -1.542969 58.597656 -7.996094 58.597656 C -14.453125 58.597656 -19.6875 63.828125 -19.6875 70.285156 C -19.6875 76.742188 -14.453125 81.976562 -7.996094 81.976562 Z M -7.996094 60.15625 C -2.410156 60.15625 2.132812 64.699219 2.132812 70.285156 C 2.132812 72.742188 1.351562 74.996094 -0.207031 76.75 L -0.207031 76.5625 C -0.207031 73.933594 -1.582031 71.6875 -3.667969 70.472656 C -4 70.90625 -4.390625 71.285156 -4.832031 71.601562 C -2.984375 72.472656 -1.761719 74.316406 -1.761719 76.5625 L -1.761719 78.078125 C -1.761719 78.132812 -1.742188 78.179688 -1.734375 78.230469 C -3.457031 79.59375 -5.632812 80.417969 -7.996094 80.417969 C -10.363281 80.417969 -12.539062 79.59375 -14.261719 78.230469 C -14.253906 78.179688 -14.230469 78.132812 -14.230469 78.078125 L -14.230469 76.5625 C -14.230469 74.316406 -13.011719 72.46875 -11.164062 71.601562 C -11.605469 71.285156 -11.996094 70.90625 -12.328125 70.472656 C -14.414062 71.6875 -15.789062 73.933594 -15.789062 76.5625 L -15.789062 76.75 C -17.25 74.992188 -18.128906 72.742188 -18.128906 70.285156 C -18.128906 64.699219 -13.585938 60.15625 -7.996094 60.15625 Z M -7.996094 60.15625 " fill-opacity="1" fill-rule="nonzero"/><path fill="#384765" d="M 68.371094 58.597656 C 61.917969 58.597656 56.683594 63.828125 56.683594 70.285156 C 56.683594 76.742188 61.917969 81.976562 68.371094 81.976562 C 74.828125 81.976562 80.0625 76.742188 80.0625 70.285156 C 80.0625 63.828125 74.828125 58.597656 68.371094 58.597656 Z M 68.371094 80.417969 C 62.785156 80.417969 58.242188 75.871094 58.242188 70.285156 C 58.242188 64.699219 62.785156 60.15625 68.371094 60.15625 C 73.960938 60.15625 78.503906 64.699219 78.503906 70.285156 C 78.503906 75.871094 73.960938 80.417969 68.371094 80.417969 Z M 68.371094 80.417969 " fill-opacity="1" fill-rule="nonzero"/><path fill="#384765" d="M 12.261719 18.539062 C 12.261719 20.855469 14.015625 22.75 16.160156 22.75 C 16.703125 22.75 17.21875 22.625 17.6875 22.410156 C 19.488281 27.589844 24.394531 31.320312 30.1875 31.320312 C 33.113281 31.320312 35.804688 30.363281 37.996094 28.757812 C 37.164062 28.902344 36.261719 28.988281 35.273438 28.988281 C 34.992188 28.988281 34.703125 28.980469 34.40625 28.96875 C 33.09375 29.476562 31.675781 29.761719 30.1875 29.761719 C 24.90625 29.761719 20.433594 26.238281 18.988281 21.421875 C 19.648438 20.664062 20.054688 19.652344 20.054688 18.539062 L 20.054688 14.488281 C 20.054688 13.910156 19.949219 13.359375 19.75 12.859375 C 21.671875 9.027344 25.617188 6.382812 30.1875 6.382812 C 34.757812 6.382812 38.703125 9.027344 40.625 12.859375 C 40.425781 13.359375 40.316406 13.910156 40.316406 14.488281 L 40.316406 18.539062 C 40.316406 20.382812 41.433594 21.957031 42.964844 22.519531 C 41.882812 23.980469 38.941406 26.644531 32.5 25.621094 C 32.378906 24.449219 31.394531 23.527344 30.1875 23.527344 C 28.898438 23.527344 27.847656 24.578125 27.847656 25.867188 C 27.847656 27.15625 28.898438 28.203125 30.1875 28.203125 C 31 28.203125 31.71875 27.785156 32.136719 27.152344 C 33.269531 27.339844 34.316406 27.429688 35.269531 27.429688 C 41.453125 27.429688 43.992188 23.953125 44.703125 22.710938 C 46.617188 22.449219 48.109375 20.675781 48.109375 18.539062 L 48.109375 14.488281 C 48.109375 12.457031 46.757812 10.746094 44.976562 10.363281 C 42.933594 4.445312 37.089844 0.148438 30.1875 0.148438 C 23.285156 0.148438 17.441406 4.445312 15.398438 10.363281 C 13.617188 10.746094 12.261719 12.457031 12.261719 14.488281 Z M 30.1875 26.644531 C 29.757812 26.644531 29.40625 26.296875 29.40625 25.867188 C 29.40625 25.4375 29.757812 25.085938 30.1875 25.085938 C 30.617188 25.085938 30.964844 25.4375 30.964844 25.867188 C 30.964844 26.296875 30.617188 26.644531 30.1875 26.644531 Z M 46.550781 14.488281 L 46.550781 18.539062 C 46.550781 20 45.503906 21.191406 44.214844 21.191406 C 42.925781 21.191406 41.875 20 41.875 18.539062 L 41.875 14.488281 C 41.875 13.027344 42.925781 11.839844 44.214844 11.839844 C 45.503906 11.839844 46.550781 13.027344 46.550781 14.488281 Z M 30.1875 1.707031 C 36.222656 1.707031 41.367188 5.332031 43.34375 10.390625 C 42.683594 10.554688 42.089844 10.902344 41.605469 11.378906 C 39.300781 7.460938 35.058594 4.824219 30.1875 4.824219 C 25.316406 4.824219 21.074219 7.460938 18.769531 11.378906 C 18.285156 10.902344 17.691406 10.554688 17.03125 10.390625 C 19.007812 5.332031 24.152344 1.707031 30.1875 1.707031 Z M 13.820312 14.488281 C 13.820312 13.027344 14.871094 11.839844 16.160156 11.839844 C 17.449219 11.839844 18.496094 13.027344 18.496094 14.488281 L 18.496094 18.539062 C 18.496094 20 17.449219 21.191406 16.160156 21.191406 C 14.871094 21.191406 13.820312 20 13.820312 18.539062 Z M 13.820312 14.488281 " fill-opacity="1" fill-rule="nonzero"/><path fill="#384765" d="M 30.964844 58.597656 C 30.964844 58.8125 30.890625 58.996094 30.738281 59.148438 C 30.585938 59.300781 30.402344 59.375 30.1875 59.375 C 29.972656 59.375 29.789062 59.300781 29.636719 59.148438 C 29.484375 58.996094 29.40625 58.8125 29.40625 58.597656 C 29.40625 58.382812 29.484375 58.195312 29.636719 58.046875 C 29.789062 57.894531 29.972656 57.816406 30.1875 57.816406 C 30.402344 57.816406 30.585938 57.894531 30.738281 58.046875 C 30.890625 58.195312 30.964844 58.382812 30.964844 58.597656 Z M 30.964844 58.597656 " fill-opacity="1" fill-rule="nonzero"/><path fill="#384765" d="M 14.601562 55.480469 C 14.601562 55.695312 14.527344 55.878906 14.375 56.03125 C 14.222656 56.183594 14.039062 56.257812 13.820312 56.257812 C 13.605469 56.257812 13.421875 56.183594 13.269531 56.03125 C 13.117188 55.878906 13.042969 55.695312 13.042969 55.480469 C 13.042969 55.265625 13.117188 55.078125 13.269531 54.929688 C 13.421875 54.777344 13.605469 54.699219 13.820312 54.699219 C 14.039062 54.699219 14.222656 54.777344 14.375 54.929688 C 14.527344 55.078125 14.601562 55.265625 14.601562 55.480469 Z M 14.601562 55.480469 " fill-opacity="1" fill-rule="nonzero"/><path fill="#384765" d="M 20.417969 39.023438 C 20.800781 38.824219 20.945312 38.351562 20.746094 37.972656 C 20.546875 37.589844 20.078125 37.445312 19.695312 37.644531 C 13.519531 40.890625 13.0625 47.4375 13.042969 47.761719 L 13.042969 52.363281 C 13.042969 52.792969 13.390625 53.140625 13.820312 53.140625 C 14.253906 53.140625 14.601562 52.792969 14.601562 52.363281 L 14.601562 47.808594 C 14.605469 47.75 15.015625 41.863281 20.417969 39.023438 Z M 20.417969 39.023438 " fill-opacity="1" fill-rule="nonzero"/><g clip-path="url(#8c006d1433)"><g clip-path="url(#3eb8bfde35)"><path fill="#ffffff" d="M -6.148438 -5.324219 L 9.601562 -5.324219 L 9.601562 15.675781 L -6.148438 15.675781 Z M -6.148438 -5.324219 " fill-opacity="1" fill-rule="nonzero"/></g></g><g clip-path="url(#be800b72ff)"><g clip-path="url(#47ae142339)"><path fill="#ffffff" d="M 53.925781 -3.976562 L 63.675781 -3.976562 L 63.675781 11.773438 L 53.925781 11.773438 Z M 53.925781 -3.976562 " fill-opacity="1" fill-rule="nonzero"/></g></g><g clip-path="url(#0beb70979c)"><g clip-path="url(#f92f4b5f61)"><path fill="#ffffff" d="M -5.324219 -5.851562 L 5.925781 -5.851562 L 5.925781 7.648438 L -5.324219 7.648438 Z M -5.324219 -5.851562 " fill-opacity="1" fill-rule="nonzero"/></g></g></svg>