<svg xmlns="http://www.w3.org/2000/svg" xmlns:xlink="http://www.w3.org/1999/xlink" width="150" zoomAndPan="magnify" viewBox="0 0 112.5 30.000001" height="40" preserveAspectRatio="xMidYMid meet" version="1.0"><defs><clipPath id="39bad75abd"><path d="M 1.574219 4.640625 L 23 4.640625 L 23 24.324219 L 1.574219 24.324219 Z M 1.574219 4.640625 " clip-rule="nonzero"/></clipPath><clipPath id="4182d4ea7c"><path d="M 23 4.640625 L 45 4.640625 L 45 24.324219 L 23 24.324219 Z M 23 4.640625 " clip-rule="nonzero"/></clipPath><clipPath id="36400b43f3"><path d="M 45 4.640625 L 67 4.640625 L 67 24.324219 L 45 24.324219 Z M 45 4.640625 " clip-rule="nonzero"/></clipPath><clipPath id="08bc804362"><path d="M 68 4.640625 L 89 4.640625 L 89 24.324219 L 68 24.324219 Z M 68 4.640625 " clip-rule="nonzero"/></clipPath><clipPath id="9eee799641"><path d="M 90 4.640625 L 110.445312 4.640625 L 110.445312 24.324219 L 90 24.324219 Z M 90 4.640625 " clip-rule="nonzero"/></clipPath></defs><g clip-path="url(#39bad75abd)"><path fill="#fbb03b" d="M 11.976562 4.636719 L 14.402344 12.160156 L 22.253906 12.160156 L 15.902344 16.804688 L 18.328125 24.324219 L 11.976562 19.675781 L 5.625 24.324219 L 8.050781 16.804688 L 1.699219 12.160156 L 9.550781 12.160156 L 11.976562 4.636719 " fill-opacity="1" fill-rule="nonzero"/></g><g clip-path="url(#4182d4ea7c)"><path fill="#fbb03b" d="M 34.113281 4.636719 L 36.539062 12.160156 L 44.390625 12.160156 L 38.039062 16.804688 L 40.464844 24.324219 L 34.113281 19.675781 L 27.761719 24.324219 L 30.1875 16.804688 L 23.835938 12.160156 L 31.6875 12.160156 L 34.113281 4.636719 " fill-opacity="1" fill-rule="nonzero"/></g><g clip-path="url(#36400b43f3)"><path fill="#fbb03b" d="M 56.25 4.636719 L 58.675781 12.160156 L 66.527344 12.160156 L 60.175781 16.804688 L 62.601562 24.324219 L 56.25 19.675781 L 49.898438 24.324219 L 52.324219 16.804688 L 45.972656 12.160156 L 53.824219 12.160156 L 56.25 4.636719 " fill-opacity="1" fill-rule="nonzero"/></g><g clip-path="url(#08bc804362)"><path fill="#fbb03b" d="M 78.386719 4.636719 L 80.8125 12.160156 L 88.664062 12.160156 L 82.3125 16.804688 L 84.738281 24.324219 L 78.386719 19.675781 L 72.035156 24.324219 L 74.460938 16.804688 L 68.109375 12.160156 L 75.960938 12.160156 L 78.386719 4.636719 " fill-opacity="1" fill-rule="nonzero"/></g><g clip-path="url(#9eee799641)"><path fill="#fbb03b" d="M 100.523438 4.636719 L 102.949219 12.160156 L 110.800781 12.160156 L 104.449219 16.804688 L 106.875 24.324219 L 100.523438 19.675781 L 94.167969 24.324219 L 96.597656 16.804688 L 90.246094 12.160156 L 98.097656 12.160156 L 100.523438 4.636719 " fill-opacity="1" fill-rule="nonzero"/></g></svg>