<svg xmlns="http://www.w3.org/2000/svg" xmlns:xlink="http://www.w3.org/1999/xlink" width="80" zoomAndPan="magnify" viewBox="0 0 60 60" height="80" preserveAspectRatio="xMidYMid meet" version="1.0"><defs><clipPath id="fcaf931ca3"><path d="M 0 4.6875 L 27 4.6875 L 27 30.9375 L 0 30.9375 Z M 0 4.6875 " clip-rule="nonzero"/></clipPath><clipPath id="f35fc5848d"><path d="M 2.441406 30 L 60 30 L 60 45.75 L 2.441406 45.75 Z M 2.441406 30 " clip-rule="nonzero"/></clipPath><clipPath id="4d7f1266d9"><path d="M 26 16.5 L 37 16.5 L 37 28 L 26 28 Z M 26 16.5 " clip-rule="nonzero"/></clipPath></defs><g clip-path="url(#fcaf931ca3)"><path fill="#374563" d="M 21.023438 15.570312 C 21.265625 15.570312 21.460938 15.378906 21.460938 15.144531 C 21.460938 14.910156 21.265625 14.71875 21.023438 14.71875 C 15.589844 14.71875 11.171875 10.410156 11.171875 5.113281 C 11.171875 4.878906 10.976562 4.6875 10.734375 4.6875 C 10.492188 4.6875 10.296875 4.878906 10.296875 5.113281 C 10.296875 10.410156 5.875 14.71875 0.445312 14.71875 C 0.203125 14.71875 0.0078125 14.910156 0.0078125 15.144531 C 0.0078125 15.378906 0.203125 15.570312 0.445312 15.570312 C 5.875 15.570312 10.296875 19.878906 10.296875 25.175781 C 10.296875 25.410156 10.492188 25.601562 10.734375 25.601562 C 10.976562 25.601562 11.171875 25.410156 11.171875 25.175781 C 11.171875 19.878906 15.589844 15.570312 21.023438 15.570312 Z M 10.734375 22.21875 C 9.707031 18.824219 6.957031 16.148438 3.476562 15.144531 C 6.957031 14.144531 9.707031 11.464844 10.734375 8.070312 C 11.761719 11.464844 14.511719 14.144531 17.988281 15.144531 C 14.511719 16.148438 11.761719 18.824219 10.734375 22.21875 Z M 26.554688 23.445312 C 23.039062 23.445312 20.183594 20.660156 20.183594 17.234375 C 20.183594 17 19.988281 16.808594 19.746094 16.808594 C 19.503906 16.808594 19.308594 17 19.308594 17.234375 C 19.308594 20.660156 16.449219 23.445312 12.9375 23.445312 C 12.695312 23.445312 12.5 23.636719 12.5 23.871094 C 12.5 24.109375 12.695312 24.300781 12.9375 24.300781 C 16.449219 24.300781 19.308594 27.085938 19.308594 30.507812 C 19.308594 30.746094 19.503906 30.9375 19.746094 30.9375 C 19.988281 30.9375 20.183594 30.746094 20.183594 30.507812 C 20.183594 27.085938 23.039062 24.300781 26.554688 24.300781 C 26.796875 24.300781 26.992188 24.109375 26.992188 23.871094 C 26.992188 23.636719 26.796875 23.445312 26.554688 23.445312 Z M 19.746094 28.09375 C 19.015625 26.140625 17.421875 24.585938 15.417969 23.871094 C 17.421875 23.160156 19.015625 21.605469 19.746094 19.652344 C 20.476562 21.605469 22.070312 23.160156 24.074219 23.871094 C 22.070312 24.585938 20.476562 26.140625 19.746094 28.09375 Z M 19.746094 28.09375 " fill-opacity="1" fill-rule="nonzero"/></g><g clip-path="url(#f35fc5848d)"><path fill="#374563" d="M 58.828125 43.941406 C 58.8125 44.035156 58.734375 44.335938 58.359375 44.335938 L 4.402344 44.433594 C 3.929688 44.433594 3.832031 44.054688 3.8125 43.941406 C 3.792969 43.824219 3.765625 43.433594 4.210938 43.285156 L 4.234375 43.277344 L 27.808594 33.605469 L 31.28125 32.234375 L 58.46875 43.402344 L 58.507812 43.417969 C 58.867188 43.535156 58.84375 43.847656 58.828125 43.941406 Z M 59.933594 43.003906 C 59.726562 42.625 59.386719 42.34375 58.953125 42.195312 L 33.03125 31.542969 L 32.488281 31.320312 C 32.65625 31 32.6875 30.609375 32.535156 30.25 L 30.207031 31.214844 L 30.203125 31.210938 L 3.769531 42.058594 C 3.304688 42.21875 2.941406 42.515625 2.71875 42.921875 C 2.515625 43.289062 2.441406 43.726562 2.515625 44.152344 C 2.585938 44.578125 2.792969 44.964844 3.105469 45.25 C 3.453125 45.566406 3.902344 45.734375 4.402344 45.734375 C 4.402344 45.734375 4.402344 45.734375 4.40625 45.734375 L 58.359375 45.636719 C 58.828125 45.636719 59.25 45.476562 59.574219 45.179688 C 59.867188 44.914062 60.0625 44.546875 60.128906 44.152344 C 60.191406 43.753906 60.125 43.347656 59.933594 43.003906 " fill-opacity="1" fill-rule="nonzero"/></g><path fill="#374563" d="M 29.355469 31.46875 L 32.011719 30.363281 C 32.65625 30.097656 32.960938 29.359375 32.6875 28.722656 L 30.03125 29.824219 C 29.386719 30.09375 29.082031 30.828125 29.355469 31.46875 " fill-opacity="1" fill-rule="nonzero"/><g clip-path="url(#4d7f1266d9)"><path fill="#374563" d="M 27.3125 21.464844 C 27.429688 19.542969 28.914062 17.972656 30.761719 17.804688 C 30.863281 17.796875 30.964844 17.792969 31.066406 17.792969 C 31.949219 17.792969 32.792969 18.128906 33.507812 18.761719 C 34.359375 19.519531 34.933594 20.601562 34.898438 21.652344 C 34.820312 23.847656 33.277344 24.875 32.058594 25.347656 C 31.160156 25.691406 30.570312 26.554688 30.570312 27.511719 L 30.570312 27.96875 L 30.621094 27.945312 L 31.871094 27.429688 C 31.871094 27.070312 32.097656 26.75 32.441406 26.628906 C 33.363281 26.304688 34.191406 25.769531 34.835938 25.070312 C 35.730469 24.097656 36.214844 22.875 36.195312 21.628906 C 36.171875 20.230469 35.492188 18.800781 34.375 17.808594 C 33.429688 16.972656 32.257812 16.511719 31.066406 16.511719 C 30.925781 16.511719 30.78125 16.515625 30.644531 16.527344 C 29.460938 16.636719 28.339844 17.179688 27.484375 18.066406 C 26.613281 18.964844 26.09375 20.144531 26.019531 21.386719 C 26 21.699219 26.242188 21.96875 26.558594 21.988281 L 26.703125 22 C 27.019531 22.015625 27.292969 21.777344 27.3125 21.464844 " fill-opacity="1" fill-rule="nonzero"/></g><path fill="#374563" d="M 32.773438 27.222656 L 32.003906 27.542969 L 31.871094 27.601562 L 30.621094 28.117188 L 30.570312 28.140625 L 30.117188 28.328125 C 29.472656 28.597656 29.167969 29.332031 29.441406 29.96875 L 32.097656 28.867188 C 32.742188 28.597656 33.046875 27.863281 32.773438 27.222656 " fill-opacity="1" fill-rule="nonzero"/></svg>