<svg xmlns="http://www.w3.org/2000/svg" xmlns:xlink="http://www.w3.org/1999/xlink" width="400" zoomAndPan="magnify" viewBox="0 0 300 56.249996" height="75" preserveAspectRatio="xMidYMid meet" version="1.0"><defs><clipPath id="c5bc4dafa8"><path d="M 2 1.296875 L 58 1.296875 L 58 54.585938 L 2 54.585938 Z M 2 1.296875 " clip-rule="nonzero"/></clipPath><clipPath id="c8e3e35943"><path d="M 62 1.296875 L 118 1.296875 L 118 54.585938 L 62 54.585938 Z M 62 1.296875 " clip-rule="nonzero"/></clipPath><clipPath id="2afa8cc897"><path d="M 122 1.296875 L 178 1.296875 L 178 54.585938 L 122 54.585938 Z M 122 1.296875 " clip-rule="nonzero"/></clipPath><clipPath id="7ed67469c4"><path d="M 182 1.296875 L 238 1.296875 L 238 54.585938 L 182 54.585938 Z M 182 1.296875 " clip-rule="nonzero"/></clipPath><clipPath id="4982fb94af"><path d="M 242 1.296875 L 298 1.296875 L 298 54.585938 L 242 54.585938 Z M 242 1.296875 " clip-rule="nonzero"/></clipPath></defs><g clip-path="url(#c5bc4dafa8)"><path fill="#fbb03b" d="M 30.144531 1.289062 L 36.710938 21.648438 L 57.96875 21.648438 L 40.769531 34.230469 L 47.339844 54.585938 L 30.144531 42.007812 L 12.945312 54.585938 L 19.515625 34.230469 L 2.316406 21.648438 L 23.574219 21.648438 L 30.144531 1.289062 " fill-opacity="1" fill-rule="nonzero"/></g><g clip-path="url(#c8e3e35943)"><path fill="#fbb03b" d="M 90.070312 1.289062 L 96.640625 21.648438 L 117.894531 21.648438 L 100.699219 34.230469 L 107.269531 54.585938 L 90.070312 42.007812 L 72.875 54.585938 L 79.441406 34.230469 L 62.246094 21.648438 L 83.503906 21.648438 L 90.070312 1.289062 " fill-opacity="1" fill-rule="nonzero"/></g><g clip-path="url(#2afa8cc897)"><path fill="#fbb03b" d="M 150 1.289062 L 156.570312 21.648438 L 177.824219 21.648438 L 160.628906 34.230469 L 167.199219 54.585938 L 150 42.007812 L 132.804688 54.585938 L 139.371094 34.230469 L 122.175781 21.648438 L 143.429688 21.648438 L 150 1.289062 " fill-opacity="1" fill-rule="nonzero"/></g><g clip-path="url(#7ed67469c4)"><path fill="#fbb03b" d="M 209.929688 1.289062 L 216.496094 21.648438 L 237.753906 21.648438 L 220.558594 34.230469 L 227.125 54.585938 L 209.929688 42.007812 L 192.730469 54.585938 L 199.300781 34.230469 L 182.105469 21.648438 L 203.359375 21.648438 L 209.929688 1.289062 " fill-opacity="1" fill-rule="nonzero"/></g><g clip-path="url(#4982fb94af)"><path fill="#fbb03b" d="M 269.855469 1.289062 L 276.425781 21.648438 L 297.683594 21.648438 L 280.484375 34.230469 L 287.054688 54.585938 L 269.855469 42.007812 L 252.660156 54.585938 L 259.226562 34.230469 L 242.03125 21.648438 L 263.289062 21.648438 L 269.855469 1.289062 " fill-opacity="1" fill-rule="nonzero"/></g></svg>