<svg xmlns="http://www.w3.org/2000/svg" xmlns:xlink="http://www.w3.org/1999/xlink" width="80" zoomAndPan="magnify" viewBox="0 0 60 60" height="80" preserveAspectRatio="xMidYMid meet" version="1.0"><defs><clipPath id="699eb825a0"><path d="M 3 1.109375 L 56 1.109375 L 56 58.859375 L 3 58.859375 Z M 3 1.109375 " clip-rule="nonzero"/></clipPath><clipPath id="1ef3af5066"><path d="M 10 7.910156 L 50 7.910156 L 50 52.160156 L 10 52.160156 Z M 10 7.910156 " clip-rule="nonzero"/></clipPath></defs><g clip-path="url(#699eb825a0)"><path fill="#374563" d="M 29.933594 58.828125 L 29.703125 58.757812 C 22.523438 56.507812 16.734375 52.503906 12.464844 46.863281 C 9.070312 42.363281 6.644531 36.816406 5.261719 30.390625 C 2.914062 19.488281 4.355469 9.945312 4.421875 9.542969 L 4.492188 9.070312 L 29.921875 1.144531 L 55.351562 9.070312 L 55.421875 9.542969 C 55.476562 9.945312 56.914062 19.488281 54.578125 30.390625 C 53.199219 36.816406 50.769531 42.363281 47.375 46.863281 C 43.121094 52.503906 37.320312 56.507812 30.140625 58.757812 Z M 5.863281 10.234375 C 5.597656 12.289062 4.746094 20.800781 6.757812 30.113281 C 8.09375 36.320312 10.429688 41.648438 13.699219 45.964844 C 17.714844 51.28125 23.179688 55.078125 29.933594 57.234375 C 36.699219 55.066406 42.164062 51.269531 46.179688 45.941406 C 49.449219 41.613281 51.773438 36.273438 53.105469 30.066406 C 55.109375 20.765625 54.257812 12.277344 53.992188 10.234375 L 29.921875 2.734375 Z M 5.863281 10.234375 " fill-opacity="1" fill-rule="nonzero"/></g><g clip-path="url(#1ef3af5066)"><path fill="#374563" d="M 29.925781 52.128906 L 29.75 52.078125 C 24.265625 50.355469 19.84375 47.285156 16.585938 42.964844 C 13.992188 39.515625 12.136719 35.265625 11.082031 30.34375 C 9.289062 21.992188 10.386719 14.679688 10.441406 14.371094 L 10.492188 14.007812 L 29.917969 7.9375 L 49.34375 14.007812 L 49.398438 14.371094 C 49.441406 14.679688 50.539062 21.992188 48.753906 30.34375 C 47.699219 35.265625 45.84375 39.515625 43.253906 42.964844 C 40 47.285156 35.570312 50.355469 30.085938 52.078125 Z M 11.539062 14.902344 C 11.335938 16.476562 10.6875 22.996094 12.226562 30.128906 C 13.246094 34.886719 15.027344 38.96875 17.523438 42.273438 C 20.59375 46.351562 24.769531 49.257812 29.925781 50.910156 C 35.097656 49.25 39.269531 46.339844 42.339844 42.257812 C 44.835938 38.941406 46.609375 34.851562 47.628906 30.09375 C 49.160156 22.972656 48.507812 16.464844 48.308594 14.902344 L 29.917969 9.15625 Z M 11.539062 14.902344 " fill-opacity="1" fill-rule="nonzero"/></g></svg>