<svg xmlns="http://www.w3.org/2000/svg" xmlns:xlink="http://www.w3.org/1999/xlink" width="40" zoomAndPan="magnify" viewBox="0 0 30 30.000001" height="40" preserveAspectRatio="xMidYMid meet" version="1.0"><defs><clipPath id="b67193a457"><path d="M 11.070312 5.953125 L 19 5.953125 L 19 23.371094 L 11.070312 23.371094 Z M 11.070312 5.953125 " clip-rule="nonzero"/></clipPath></defs><g clip-path="url(#b67193a457)"><path fill="#000000" d="M 11.304688 19.691406 L 14.636719 23.132812 C 14.867188 23.371094 15.246094 23.371094 15.480469 23.132812 L 18.816406 19.691406 C 19.046875 19.453125 19.046875 19.058594 18.816406 18.820312 C 18.585938 18.582031 18.207031 18.582031 17.976562 18.820312 L 15.65625 21.214844 L 15.65625 6.566406 C 15.65625 6.230469 15.390625 5.953125 15.0625 5.953125 C 14.734375 5.953125 14.464844 6.230469 14.464844 6.566406 L 14.464844 21.207031 L 12.148438 18.8125 C 12.027344 18.691406 11.878906 18.636719 11.722656 18.636719 C 11.566406 18.636719 11.417969 18.699219 11.300781 18.8125 C 11.074219 19.058594 11.074219 19.453125 11.304688 19.691406 Z M 11.304688 19.691406 " fill-opacity="1" fill-rule="nonzero"/></g></svg>