<svg xmlns="http://www.w3.org/2000/svg" xmlns:xlink="http://www.w3.org/1999/xlink" width="40" zoomAndPan="magnify" viewBox="0 0 30 30.000001" height="40" preserveAspectRatio="xMidYMid meet" version="1.0"><defs><clipPath id="48d8cf433c"><path d="M 8.082031 0 L 21.871094 0 L 21.871094 29 L 8.082031 29 Z M 8.082031 0 " clip-rule="nonzero"/></clipPath></defs><g clip-path="url(#48d8cf433c)"><path fill="#ffffff" d="M 8.535156 22.894531 L 14.269531 28.628906 C 14.667969 29.027344 15.320312 29.027344 15.71875 28.628906 L 21.464844 22.894531 C 21.863281 22.496094 21.863281 21.84375 21.464844 21.445312 C 21.066406 21.046875 20.414062 21.046875 20.015625 21.445312 L 16.027344 25.4375 L 16.027344 1.023438 C 16.027344 0.457031 15.566406 -0.00390625 15 -0.00390625 C 14.433594 -0.00390625 13.972656 0.457031 13.972656 1.023438 L 13.972656 25.421875 L 9.984375 21.433594 C 9.777344 21.226562 9.523438 21.136719 9.253906 21.136719 C 8.984375 21.136719 8.726562 21.242188 8.519531 21.433594 C 8.136719 21.84375 8.136719 22.496094 8.535156 22.894531 Z M 8.535156 22.894531 " fill-opacity="1" fill-rule="nonzero"/></g></svg>